<?xml version="1.0" encoding="UTF-8" standalone="no"?><!DOCTYPE svg PUBLIC "-//W3C//DTD SVG 1.1//EN" "http://www.w3.org/Graphics/SVG/1.1/DTD/svg11.dtd"><svg width="100%" height="100%" viewBox="0 0 2686 2134" version="1.1" xmlns="http://www.w3.org/2000/svg" xmlns:xlink="http://www.w3.org/1999/xlink" xml:space="preserve" xmlns:serif="http://www.serif.com/" style="fill-rule:evenodd;clip-rule:evenodd;stroke-linejoin:round;stroke-miterlimit:2;"><path d="M2104.76,179.147l2.025,9.156l-72.074,40.044l-8.125,-7.844l-0.002,0.01c-23.636,-20.887 -54.114,-32.424 -85.656,-32.424c-70.962,0 -129.355,58.393 -129.355,129.355c0,37.062 15.927,72.391 43.699,96.932l-0.001,-0.012l8.776,7.105c12.132,8.97 25.74,15.749 40.208,20.029l-0.001,-0.01l4.335,1.198l0,94.463l-10.792,3.308l0.001,-0.012c-51.55,18.235 -86.22,67.275 -86.22,121.955c-0,57.937 38.923,109.142 94.747,124.644l-0,0.01l2.264,0.599l0,94.435l-10.791,3.31c-28.665,10.139 -52.858,30.067 -68.3,56.26l-0.001,0.011l-0.591,0.998l-911.675,0l-37.614,-165.424l9.803,-5.59l-0,-0.014c37.565,-23.659 60.42,-65.063 60.42,-109.459c0,-68.584 -54.543,-125.857 -123.046,-129.205l0.001,0.01l-2.729,-0.114l-20.413,-89.786l9.58,-5.961l-0.001,0.008c35.19,-24.088 56.281,-64.084 56.281,-106.729c-0,-70.954 -58.387,-129.34 -129.341,-129.34c-22.236,-0 -44.101,5.734 -63.475,16.647l-9.58,5.961c-35.189,24.088 -56.279,64.083 -56.279,106.726c-0,70.434 57.535,128.583 127.965,129.33l0.001,-0.014l2.301,0.029l19.908,87.561l-9.785,5.615c-37.386,23.696 -60.105,64.995 -60.105,109.259c-0,68.724 54.766,126.066 123.418,129.222l0.001,-0.01l1.986,0.086l34.371,151.192l-268.222,0l-47.916,2.082l0.001,0.014c-282.477,24.714 -501.851,264.121 -501.851,547.676c-0,301.593 248.173,549.768 549.766,549.769l0,-0.009l426.961,0l6.064,9.527c24.187,34.541 63.795,55.16 105.962,55.16c46.157,-0 88.946,-24.705 112.025,-64.678l-0.001,-0.009l879.717,0l5.639,-0.228l-0.002,-0.009c33.234,-2.907 59.043,-31.072 59.043,-64.433c0,-35.481 -29.197,-64.678 -64.678,-64.678l-0.002,0.003l-879.717,0l-6.058,-9.526l0.001,0.005c-24.187,-34.542 -63.796,-55.161 -105.965,-55.161c-46.158,-0 -88.948,24.705 -112.027,64.679l-0.001,0.003l-426.961,0l-36.642,-1.597l0,-0.006c-216.011,-18.9 -383.767,-201.975 -383.767,-418.811c-0,-230.63 189.779,-420.41 420.409,-420.411l0,0.012l1246.23,-0l6.058,9.497l-0.001,0.008c24.186,34.546 63.797,55.168 105.968,55.168c70.963,0 129.356,-58.393 129.356,-129.356c0,-11.308 -1.483,-22.567 -4.41,-33.49l-0.713,-2.537l75.556,-44.778l8.334,7.615l-0.001,-0.013c51.041,42.629 127.062,39.308 174.191,-7.61l-0.001,0.008l75.557,44.778l-2.674,10.956c-1.637,8.27 -2.461,16.681 -2.461,25.112c-0,70.966 58.396,129.363 129.363,129.363c61.558,-0 115.008,-43.939 126.918,-104.334l1.703,-11.161c6.725,-62.159 -32.529,-120.738 -92.576,-138.154l-3.699,-1.025l-0,-94.435l10.793,-3.308l-0.001,0.004c51.55,-18.235 86.22,-67.275 86.22,-121.955c0,-57.937 -38.922,-109.141 -94.747,-124.644l-2.265,-0.601l-0,-94.463l10.793,-3.28l-0.001,-0.01c51.552,-18.233 86.224,-67.272 86.224,-121.953c-0,-70.963 -58.394,-129.356 -129.356,-129.356c-10.909,-0 -21.775,1.38 -32.337,4.107l-0.001,-0.012l-10.79,3.311c-17.81,6.297 -34.026,16.42 -47.506,29.655l0.001,0.004l-3.149,3.195l-72.074,-40.044l2.361,-11.039c1.199,-7.108 1.802,-14.304 1.802,-21.513c-0,-70.964 -58.395,-129.358 -129.359,-129.358c-58.718,0 -110.422,39.981 -125.196,96.811l-0.001,0.013l-2.361,11.009l0.001,0.005c-2.51,14.882 -2.397,30.088 0.334,44.931l0.001,-0.015Zm252.828,624.81c5.427,22.046 4.954,45.137 -1.369,66.942l75.555,44.78l0.626,-0.626c16.201,-15.91 36.31,-27.277 58.297,-32.953l-0,-94.453l-3.698,-1.013c-68.151,-19.767 -107.965,-92.112 -88.2,-160.263l-75.555,-44.779l-7.88,7.233c-51.016,43.003 -127.358,39.841 -174.643,-7.233l-75.556,44.779l1.013,3.698c17.738,68.707 -24.204,139.84 -92.91,157.578l-0,94.453l0.851,0.225c21.947,5.827 41.978,17.332 58.071,33.353l75.555,-44.779l-1.369,-5.121c-2.49,-10.116 -3.748,-20.496 -3.748,-30.913c-0,-70.963 58.393,-129.356 129.355,-129.356c55.215,0 104.618,35.353 122.436,87.614l3.169,10.834Zm-3.169,-355.786l3.169,10.833c5.427,22.046 4.954,45.137 -1.369,66.943l75.555,44.779l0.626,-0.625c16.201,-15.911 36.31,-27.278 58.297,-32.954l-0,-94.452l-0.216,-0.055c-68.681,-17.859 -110.5,-89.07 -92.641,-157.751l-72.074,-40.047l-4.689,4.689c-51.449,48.876 -134.003,46.759 -182.879,-4.689l-72.074,40.047l0.054,0.217c17.741,68.71 -24.2,139.848 -92.911,157.589l0,94.453l0.852,0.225c21.947,5.827 41.978,17.331 58.071,33.353l75.555,-44.779l-1.369,-5.121c-2.489,-10.116 -3.748,-20.495 -3.748,-30.913c0,-70.962 58.393,-129.355 129.356,-129.355c55.214,-0 104.617,35.352 122.435,87.612l-0,0.001Z"/></svg>